<svg xmlns="http://www.w3.org/2000/svg" width="1008" height="194" viewBox="-28 144 1008 194">
  <title>Annotate.js</title>
  <rect x="-16" y="158" width="841" height="156" rx="13" fill="#fcd34d" opacity="0.92" transform="rotate(-1.5 354 236)"></rect>
  <path d="M28.80 300L4 300L42.40 160L84.20 160L122.60 300L97.80 300L89.40 268L37.20 268L28.80 300ZM61.60 175L42.80 246L83.80 246L65 175L61.60 175Z" fill="#1f2328"></path>
  <path d="M156.44 300L135.74 300L135.74 211.08L156.08 211.08L156.08 223.50L159.14 223.50Q161.48 218.46 167.60 213.96Q173.72 209.46 186.14 209.46L186.14 209.46Q196.40 209.46 204.32 214.14Q212.24 218.82 216.65 227.10Q221.06 235.38 221.06 246.72L221.06 246.72L221.06 300L200.36 300L200.36 248.34Q200.36 237.54 195.05 232.23Q189.74 226.92 180.02 226.92L180.02 226.92Q169.04 226.92 162.74 234.21Q156.44 241.50 156.44 255L156.44 255L156.44 300ZM267.14 300L246.44 300L246.44 211.08L266.78 211.08L266.78 223.50L269.84 223.50Q272.18 218.46 278.30 213.96Q284.42 209.46 296.84 209.46L296.84 209.46Q307.10 209.46 315.02 214.14Q322.94 218.82 327.35 227.10Q331.76 235.38 331.76 246.72L331.76 246.72L331.76 300L311.06 300L311.06 248.34Q311.06 237.54 305.75 232.23Q300.44 226.92 290.72 226.92L290.72 226.92Q279.74 226.92 273.44 234.21Q267.14 241.50 267.14 255L267.14 255L267.14 300ZM399.26 302.52L399.26 302.52Q385.94 302.52 375.41 297.03Q364.88 291.54 358.85 281.37Q352.82 271.20 352.82 256.98L352.82 256.98L352.82 254.10Q352.82 239.88 358.85 229.62Q364.88 219.36 375.41 213.96Q385.94 208.56 399.26 208.56L399.26 208.56Q412.58 208.56 423.02 213.96Q433.46 219.36 439.49 229.62Q445.52 239.88 445.52 254.10L445.52 254.10L445.52 256.98Q445.52 271.20 439.49 281.37Q433.46 291.54 423.02 297.03Q412.58 302.52 399.26 302.52ZM399.26 284.16L399.26 284.16Q410.60 284.16 417.80 276.87Q425 269.58 425 256.44L425 256.44L425 254.64Q425 241.50 417.80 234.21Q410.60 226.92 399.26 226.92L399.26 226.92Q387.92 226.92 380.72 234.21Q373.52 241.50 373.52 254.64L373.52 254.64L373.52 256.44Q373.52 269.58 380.72 276.87Q387.92 284.16 399.26 284.16ZM522.92 300L498.26 300Q489.62 300 484.49 294.87Q479.36 289.74 479.36 280.92L479.36 280.92L479.36 228.18L456.14 228.18L456.14 211.08L479.36 211.08L479.36 182.46L500.06 182.46L500.06 211.08L525.62 211.08L525.62 228.18L500.06 228.18L500.06 277.50Q500.06 282.90 505.10 282.90L505.10 282.90L522.92 282.90L522.92 300ZM574.04 302.52L574.04 302.52Q564.68 302.52 557.12 299.19Q549.56 295.86 545.15 289.56Q540.74 283.26 540.74 274.08L540.74 274.08Q540.74 265.08 545.15 258.96Q549.56 252.84 557.30 249.69Q565.04 246.54 574.94 246.54L574.94 246.54L600.68 246.54L600.68 241.14Q600.68 234.12 596.36 229.71Q592.04 225.30 582.86 225.30L582.86 225.30Q573.86 225.30 569.27 229.53Q564.68 233.76 563.24 240.42L563.24 240.42L544.16 234.12Q546.32 227.10 551.09 221.34Q555.86 215.58 563.78 212.07Q571.70 208.56 583.22 208.56L583.22 208.56Q600.68 208.56 610.67 217.29Q620.66 226.02 620.66 242.58L620.66 242.58L620.66 277.50Q620.66 282.90 625.70 282.90L625.70 282.90L633.26 282.90L633.26 300L618.68 300Q612.20 300 608.06 296.76Q603.92 293.52 603.92 287.94L603.92 287.94L603.92 287.58L600.86 287.58Q599.78 290.10 597.08 293.70Q594.38 297.30 588.89 299.91Q583.40 302.52 574.04 302.52ZM577.46 285.60L577.46 285.60Q587.72 285.60 594.20 279.75Q600.68 273.90 600.68 264L600.68 264L600.68 262.20L576.20 262.20Q569.54 262.20 565.40 265.08Q561.26 267.96 561.26 273.54L561.26 273.54Q561.26 278.94 565.58 282.27Q569.90 285.60 577.46 285.60ZM702.56 300L677.90 300Q669.26 300 664.13 294.87Q659.00 289.74 659.00 280.92L659.00 280.92L659.00 228.18L635.78 228.18L635.78 211.08L659.00 211.08L659.00 182.46L679.70 182.46L679.70 211.08L705.26 211.08L705.26 228.18L679.70 228.18L679.70 277.50Q679.70 282.90 684.74 282.90L684.74 282.90L702.56 282.90L702.56 300ZM763.76 302.52L763.76 302.52Q750.44 302.52 740.27 296.85Q730.10 291.18 724.43 280.83Q718.76 270.48 718.76 256.62L718.76 256.62L718.76 254.46Q718.76 240.42 724.34 230.16Q729.92 219.90 740 214.23Q750.08 208.56 763.22 208.56L763.22 208.56Q776.18 208.56 785.90 214.23Q795.62 219.90 801.02 230.16Q806.42 240.42 806.42 254.10L806.42 254.10L806.42 261.48L739.64 261.48Q740 271.92 747.02 278.22Q754.04 284.52 764.30 284.52L764.30 284.52Q774.38 284.52 779.24 280.11Q784.10 275.70 786.62 270.12L786.62 270.12L803.72 278.94Q801.20 283.80 796.43 289.29Q791.66 294.78 783.74 298.65Q775.82 302.52 763.76 302.52ZM739.82 245.82L739.82 245.82L785.36 245.82Q784.64 237 778.61 231.78Q772.58 226.56 763.04 226.56L763.04 226.56Q753.14 226.56 747.20 231.78Q741.26 237 739.82 245.82Z" fill="#1f2328"></path>
  <path d="M847.24 301.82L847.24 301.82Q842.30 301.82 838.99 298.57Q835.67 295.32 835.67 290.25L835.67 290.25Q835.67 285.31 838.99 282.06Q842.30 278.81 847.24 278.81L847.24 278.81Q852.18 278.81 855.43 282.06Q858.68 285.31 858.68 290.38L858.68 290.38Q858.68 295.45 855.43 298.63Q852.18 301.82 847.24 301.82ZM876.88 326L863.23 326L863.23 313.13L871.94 313.13Q875.58 313.13 875.58 309.23L875.58 309.23L875.58 235.78L890.53 235.78L890.53 312.22Q890.53 318.59 886.82 322.30Q883.12 326 876.88 326L876.88 326ZM882.99 227.59L882.99 227.59Q878.96 227.59 876.03 224.93Q873.11 222.26 873.11 217.84L873.11 217.84Q873.11 213.42 876.03 210.75Q878.96 208.09 882.99 208.09L882.99 208.09Q887.28 208.09 890.07 210.75Q892.87 213.42 892.87 217.84L892.87 217.84Q892.87 222.26 890.07 224.93Q887.28 227.59 882.99 227.59ZM936.03 301.82L936.03 301.82Q923.55 301.82 915.49 296.36Q907.43 290.90 905.74 280.37L905.74 280.37L919.52 276.86Q920.43 281.80 922.77 284.66Q925.11 287.52 928.55 288.69Q932 289.86 936.03 289.86L936.03 289.86Q942.14 289.86 945.19 287.65Q948.25 285.44 948.25 282.06L948.25 282.06Q948.25 278.55 945.32 276.86Q942.40 275.17 936.42 274L936.42 274L932.39 273.35Q925.76 272.05 920.30 269.77Q914.84 267.50 911.52 263.53Q908.21 259.57 908.21 253.46L908.21 253.46Q908.21 244.10 915.16 239.03Q922.12 233.96 933.43 233.96L933.43 233.96Q944.22 233.96 951.24 238.77Q958.26 243.58 960.34 251.64L960.34 251.64L946.56 255.80Q945.52 250.34 942.01 248.06Q938.50 245.79 933.43 245.79L933.43 245.79Q928.23 245.79 925.43 247.61Q922.64 249.43 922.64 252.81L922.64 252.81Q922.64 256.19 925.50 257.88Q928.36 259.57 933.17 260.35L933.17 260.35L937.20 261.13Q944.35 262.43 950.13 264.51Q955.92 266.59 959.30 270.49Q962.68 274.39 962.68 281.02L962.68 281.02Q962.68 291.03 955.47 296.43Q948.25 301.82 936.03 301.82Z" fill="#6d28d9"></path>
</svg>